<svg xmlns="http://www.w3.org/2000/svg" viewBox="0 0 64 64" role="img" aria-labelledby="t">
<title id="t">Тайныймир — планета с буквой Т</title>
<defs>
 <linearGradient id="planet" x1="8" y1="10" x2="56" y2="55" gradientUnits="userSpaceOnUse"><stop stop-color="#b8d6a8"/><stop offset=".52" stop-color="#4b8765"/><stop offset="1" stop-color="#1d4532"/></linearGradient>
 <clipPath id="disc"><circle cx="32" cy="32" r="20"/></clipPath>
</defs>
<rect width="64" height="64" rx="16" fill="#101411"/>
<ellipse cx="32" cy="32" rx="29" ry="11" transform="rotate(-25 32 32)" fill="none" stroke="#e5bc78" stroke-width="2.5"/>
<circle cx="32" cy="32" r="20" fill="url(#planet)" stroke="#d0e8c3" stroke-width="1.5"/>
<g clip-path="url(#disc)" fill="#173b2b" opacity=".75">
 <path d="M11 27 19 22l5 2 2 5-4 3-1 7-5 2-3-4-5-2 2-6zm26-15 4 4-2 5 4 3-1 5-5-1-3-4-5-2 2-6zM39 37l6-2 5 4-1 8-5 5-5-2-2-6z"/>
</g>
<text x="32" y="40" text-anchor="middle" fill="#f5f6f2" font-family="Arial,Helvetica,sans-serif" font-size="25" font-weight="800" letter-spacing="-1">Т</text>
<path d="M6 39c5 10 16 16 28 16" fill="none" stroke="#b8d6a8" stroke-width="2.5" stroke-linecap="round"/>
<circle cx="52" cy="14" r="2" fill="#e5bc78"/>
</svg>